<svg width="42" height="42" viewBox="0 0 42 42" fill="none" xmlns="http://www.w3.org/2000/svg">
<path d="M29.75 21.875C30.2332 21.875 30.625 21.4832 30.625 21C30.625 20.5168 30.2332 20.125 29.75 20.125C29.2668 20.125 28.875 20.5168 28.875 21C28.875 21.4832 29.2668 21.875 29.75 21.875Z" fill="white" stroke="white" stroke-width="2.688" stroke-linecap="round" stroke-linejoin="round"/>
<path d="M21 21.875C21.4832 21.875 21.875 21.4832 21.875 21C21.875 20.5168 21.4832 20.125 21 20.125C20.5168 20.125 20.125 20.5168 20.125 21C20.125 21.4832 20.5168 21.875 21 21.875Z" fill="white" stroke="white" stroke-width="2.688" stroke-linecap="round" stroke-linejoin="round"/>
<path d="M12.25 21.875C12.7332 21.875 13.125 21.4832 13.125 21C13.125 20.5168 12.7332 20.125 12.25 20.125C11.7668 20.125 11.375 20.5168 11.375 21C11.375 21.4832 11.7668 21.875 12.25 21.875Z" fill="white" stroke="white" stroke-width="2.688" stroke-linecap="round" stroke-linejoin="round"/>
<path d="M21 38.5C30.665 38.5 38.5 30.665 38.5 21C38.5 11.335 30.665 3.5 21 3.5C11.335 3.5 3.5 11.335 3.5 21C3.5 24.1875 4.3522 27.176 5.84119 29.75L4.375 37.625L12.25 36.1588C14.824 37.6478 17.8125 38.5 21 38.5Z" stroke="white" stroke-width="2.688" stroke-linecap="round" stroke-linejoin="round"/>
</svg>
