<svg width="32" height="32" viewBox="0 0 32 32" fill="none" xmlns="http://www.w3.org/2000/svg">
<path d="M2.66669 6.13333C2.66669 5.3866 2.66669 5.01323 2.81201 4.72801C2.93984 4.47713 3.14382 4.27316 3.3947 4.14532C3.67992 4 4.05328 4 4.80002 4H27.2C27.9468 4 28.3201 4 28.6053 4.14532C28.8562 4.27316 29.0602 4.47713 29.188 4.72801C29.3334 5.01323 29.3334 5.3866 29.3334 6.13333V7.02586C29.3334 7.38425 29.3334 7.56345 29.2896 7.73008C29.2508 7.87775 29.1869 8.01765 29.1007 8.14368C29.0035 8.28591 28.868 8.40327 28.5972 8.638L20.0695 16.0287C19.7987 16.2634 19.6632 16.3808 19.566 16.523C19.4798 16.649 19.416 16.7889 19.3771 16.9366C19.3334 17.1032 19.3334 17.2824 19.3334 17.6408V24.6112C19.3334 24.8719 19.3334 25.0023 19.2913 25.115C19.2541 25.2146 19.1937 25.3039 19.115 25.3754C19.026 25.4563 18.9049 25.5047 18.6628 25.6015L14.1295 27.4149C13.6394 27.6109 13.3944 27.7089 13.1977 27.668C13.0257 27.6323 12.8748 27.5301 12.7777 27.3837C12.6667 27.2162 12.6667 26.9523 12.6667 26.4245V17.6408C12.6667 17.2824 12.6667 17.1032 12.6229 16.9366C12.5841 16.7889 12.5202 16.649 12.434 16.523C12.3368 16.3808 12.2014 16.2634 11.9305 16.0287L3.40284 8.638C3.132 8.40327 2.99658 8.28591 2.89934 8.14368C2.81317 8.01765 2.74929 7.87775 2.71048 7.73008C2.66669 7.56345 2.66669 7.38425 2.66669 7.02586V6.13333Z" stroke="#669BBC" stroke-width="2" stroke-linecap="round" stroke-linejoin="round"/>
</svg>
