<svg width="42" height="42" viewBox="0 0 42 42" fill="none" xmlns="http://www.w3.org/2000/svg">
<path d="M15.75 36.75H12.418C8.45922 36.75 5.25 33.5408 5.25 29.582V18.8329C5.25 16.3264 6.55926 14.002 8.70281 12.7028L17.2848 7.50163C19.5683 6.11771 22.4317 6.11771 24.7152 7.50163L33.2972 12.7028C35.4407 14.002 36.75 16.3264 36.75 18.8329V29.582C36.75 33.5408 33.5408 36.75 29.582 36.75H26.25M15.75 36.75V29.75C15.75 26.8505 18.1005 24.5 21 24.5V24.5C23.8995 24.5 26.25 26.8505 26.25 29.75V36.75M15.75 36.75H26.25" stroke="#1E1E1E" stroke-width="2.688" stroke-linecap="round" stroke-linejoin="round"/>
</svg>
