<svg width="63" height="51" viewBox="0 0 63 51" fill="none" xmlns="http://www.w3.org/2000/svg">
<path d="M0.818182 0.727272H4.18182L12.0909 20.0455H12.3636L20.2727 0.727272H23.6364V24H21V6.31818H20.7727L13.5 24H10.9545L3.68182 6.31818H3.45455V24H0.818182V0.727272ZM36.2415 24.3636C34.5597 24.3636 33.1089 23.9924 31.8892 23.25C30.6771 22.5 29.7415 21.4545 29.0824 20.1136C28.4309 18.7652 28.1051 17.197 28.1051 15.4091C28.1051 13.6212 28.4309 12.0455 29.0824 10.6818C29.7415 9.31061 30.6581 8.24242 31.8324 7.47727C33.0142 6.70455 34.393 6.31818 35.9688 6.31818C36.8778 6.31818 37.7756 6.4697 38.6619 6.77273C39.5483 7.07576 40.3551 7.56818 41.0824 8.25C41.8097 8.92424 42.3892 9.81818 42.821 10.9318C43.2528 12.0455 43.4688 13.4167 43.4688 15.0455V16.1818H30.0142V13.8636H40.7415C40.7415 12.8788 40.5445 12 40.1506 11.2273C39.7642 10.4545 39.2112 9.8447 38.4915 9.39773C37.7794 8.95076 36.9384 8.72727 35.9688 8.72727C34.9006 8.72727 33.9763 8.99242 33.196 9.52273C32.4233 10.0455 31.8286 10.7273 31.4119 11.5682C30.9953 12.4091 30.7869 13.3106 30.7869 14.2727V15.8182C30.7869 17.1364 31.0142 18.2538 31.4688 19.1705C31.9309 20.0795 32.571 20.7727 33.3892 21.25C34.2074 21.7197 35.1581 21.9545 36.2415 21.9545C36.946 21.9545 37.5824 21.8561 38.1506 21.6591C38.7263 21.4545 39.2225 21.1515 39.6392 20.75C40.0559 20.3409 40.3778 19.8333 40.6051 19.2273L43.196 19.9545C42.9233 20.8333 42.465 21.6061 41.821 22.2727C41.1771 22.9318 40.3816 23.447 39.4347 23.8182C38.4877 24.1818 37.4233 24.3636 36.2415 24.3636ZM54.1392 24.3636C52.6847 24.3636 51.4006 23.9962 50.2869 23.2614C49.1733 22.5189 48.3021 21.4735 47.6733 20.125C47.0445 18.7689 46.7301 17.1667 46.7301 15.3182C46.7301 13.4848 47.0445 11.8939 47.6733 10.5455C48.3021 9.19697 49.1771 8.1553 50.2983 7.42045C51.4195 6.68561 52.715 6.31818 54.1847 6.31818C55.321 6.31818 56.2188 6.50758 56.8778 6.88636C57.5445 7.25758 58.0521 7.68182 58.4006 8.15909C58.7566 8.62879 59.0331 9.01515 59.2301 9.31818H59.4574V0.727272H62.1392V24H59.5483V21.3182H59.2301C59.0331 21.6364 58.7528 22.0379 58.3892 22.5227C58.0256 23 57.5066 23.428 56.8324 23.8068C56.1581 24.178 55.2604 24.3636 54.1392 24.3636ZM54.5028 21.9545C55.5786 21.9545 56.4877 21.6742 57.2301 21.1136C57.9725 20.5455 58.5369 19.7614 58.9233 18.7614C59.3097 17.7538 59.5028 16.5909 59.5028 15.2727C59.5028 13.9697 59.3134 12.8295 58.9347 11.8523C58.5559 10.8674 57.9953 10.1023 57.2528 9.55682C56.5104 9.00379 55.5938 8.72727 54.5028 8.72727C53.3665 8.72727 52.4195 9.01894 51.6619 9.60227C50.9119 10.178 50.3475 10.9621 49.9688 11.9545C49.5975 12.9394 49.4119 14.0455 49.4119 15.2727C49.4119 16.5152 49.6013 17.6439 49.9801 18.6591C50.3665 19.6667 50.9347 20.4697 51.6847 21.0682C52.4422 21.6591 53.3816 21.9545 54.5028 21.9545ZM3.13636 39.5V50H0.454545V32.5455H3.04545V35.2727H3.27273C3.68182 34.3864 4.30303 33.6742 5.13636 33.1364C5.9697 32.5909 7.04545 32.3182 8.36364 32.3182C9.54545 32.3182 10.5795 32.5606 11.4659 33.0455C12.3523 33.5227 13.0417 34.25 13.5341 35.2273C14.0265 36.197 14.2727 37.4242 14.2727 38.9091V50H11.5909V39.0909C11.5909 37.7197 11.2348 36.6515 10.5227 35.8864C9.81061 35.1136 8.83333 34.7273 7.59091 34.7273C6.73485 34.7273 5.9697 34.9129 5.29545 35.2841C4.62879 35.6553 4.10227 36.197 3.71591 36.9091C3.32955 37.6212 3.13636 38.4848 3.13636 39.5ZM19.1733 50V32.5455H21.8551V50H19.1733ZM20.5369 29.6364C20.0142 29.6364 19.5634 29.4583 19.1847 29.1023C18.8134 28.7462 18.6278 28.3182 18.6278 27.8182C18.6278 27.3182 18.8134 26.8902 19.1847 26.5341C19.5634 26.178 20.0142 26 20.5369 26C21.0597 26 21.5066 26.178 21.8778 26.5341C22.2566 26.8902 22.446 27.3182 22.446 27.8182C22.446 28.3182 22.2566 28.7462 21.8778 29.1023C21.5066 29.4583 21.0597 29.6364 20.5369 29.6364ZM31.9034 50.4091C30.7973 50.4091 29.7936 50.2008 28.892 49.7841C27.9905 49.3598 27.2746 48.75 26.7443 47.9545C26.214 47.1515 25.9489 46.1818 25.9489 45.0455C25.9489 44.0455 26.1458 43.2348 26.5398 42.6136C26.9337 41.9848 27.4602 41.4924 28.1193 41.1364C28.7784 40.7803 29.5057 40.5152 30.3011 40.3409C31.1042 40.1591 31.911 40.0152 32.7216 39.9091C33.7822 39.7727 34.642 39.6705 35.3011 39.6023C35.9678 39.5265 36.4527 39.4015 36.7557 39.2273C37.0663 39.053 37.2216 38.75 37.2216 38.3182V38.2273C37.2216 37.1061 36.9148 36.2348 36.3011 35.6136C35.6951 34.9924 34.7746 34.6818 33.5398 34.6818C32.2595 34.6818 31.2557 34.9621 30.5284 35.5227C29.8011 36.0833 29.2898 36.6818 28.9943 37.3182L26.4489 36.4091C26.9034 35.3485 27.5095 34.5227 28.267 33.9318C29.0322 33.3333 29.8655 32.9167 30.767 32.6818C31.6761 32.4394 32.5701 32.3182 33.4489 32.3182C34.0095 32.3182 34.6534 32.3864 35.3807 32.5227C36.1155 32.6515 36.8239 32.9205 37.5057 33.3295C38.1951 33.7386 38.767 34.3561 39.2216 35.1818C39.6761 36.0076 39.9034 37.1136 39.9034 38.5V50H37.2216V47.6364H37.0852C36.9034 48.0152 36.6004 48.4205 36.1761 48.8523C35.7519 49.2841 35.1875 49.6515 34.483 49.9545C33.7784 50.2576 32.9186 50.4091 31.9034 50.4091ZM32.3125 48C33.3731 48 34.267 47.7917 34.9943 47.375C35.7292 46.9583 36.2822 46.4205 36.6534 45.7614C37.0322 45.1023 37.2216 44.4091 37.2216 43.6818V41.2273C37.108 41.3636 36.858 41.4886 36.4716 41.6023C36.0928 41.7083 35.6534 41.803 35.1534 41.8864C34.661 41.9621 34.1799 42.0303 33.7102 42.0909C33.2481 42.1439 32.8731 42.1894 32.5852 42.2273C31.8883 42.3182 31.2367 42.4659 30.6307 42.6705C30.0322 42.8674 29.5473 43.1667 29.1761 43.5682C28.8125 43.9621 28.6307 44.5 28.6307 45.1818C28.6307 46.1136 28.9754 46.8182 29.6648 47.2955C30.3617 47.7652 31.2443 48 32.3125 48Z" fill="white"/>
</svg>
