<svg width="42" height="42" viewBox="0 0 42 42" fill="none" xmlns="http://www.w3.org/2000/svg">
<path d="M19.25 7H13.65C10.7097 7 9.23959 7 8.11655 7.57222C7.1287 8.07555 6.32555 8.8787 5.82222 9.86655C5.25 10.9896 5.25 12.4597 5.25 15.4V28.35C5.25 31.2903 5.25 32.7604 5.82222 33.8835C6.32555 34.8713 7.1287 35.6745 8.11655 36.1778C9.23959 36.75 10.7097 36.75 13.65 36.75H26.6C29.5403 36.75 31.0104 36.75 32.1335 36.1778C33.1213 35.6745 33.9244 34.8713 34.4278 33.8835C35 32.7604 35 31.2903 35 28.35V22.75M22.75 29.75H12.25M26.25 22.75H12.25M35.2123 6.78769C37.2626 8.83794 37.2626 12.1621 35.2123 14.2123C33.1621 16.2626 29.8379 16.2626 27.7877 14.2123C25.7374 12.1621 25.7374 8.83794 27.7877 6.78769C29.8379 4.73744 33.1621 4.73744 35.2123 6.78769Z" stroke="white" stroke-width="3.584" stroke-linecap="round" stroke-linejoin="round"/>
</svg>
