<svg width="42" height="42" viewBox="0 0 42 42" fill="none" xmlns="http://www.w3.org/2000/svg">
<path d="M33.25 26.25L8.75 26.25" stroke="white" stroke-width="2.68" stroke-linejoin="round"/>
<path d="M28 6.99999L14 6.99999" stroke="white" stroke-width="2.68" stroke-linecap="round" stroke-linejoin="round"/>
<path d="M26.25 7.87499V15.2722C26.25 16.6357 27.0454 17.8537 28.1749 18.6177C32.0211 21.2192 35 25.5965 35 30.5579C35 31.9626 34.8058 33.3205 34.4435 34.6045C34.0646 35.9472 32.7589 36.75 31.3639 36.75H10.6362C9.24106 36.75 7.93537 35.9472 7.55654 34.6045C7.19425 33.3205 7 31.9626 7 30.5579C7 25.5965 9.97887 21.2192 13.8251 18.6177C14.9546 17.8537 15.75 16.6357 15.75 15.2722V7.87499" stroke="white" stroke-width="2.68" stroke-linecap="round" stroke-linejoin="round"/>
<path d="M22.75 12.2679L22.7679 12.248" stroke="white" stroke-width="2.68" stroke-linecap="round" stroke-linejoin="round"/>
<path d="M19.25 3.51787L19.2679 3.49801" stroke="white" stroke-width="2.68" stroke-linecap="round" stroke-linejoin="round"/>
</svg>
